<?xml version="1.0" standalone="no"?>
<!DOCTYPE svg PUBLIC "-//W3C//DTD SVG 20010904//EN"
 "http://www.w3.org/TR/2001/REC-SVG-20010904/DTD/svg10.dtd">
<svg version="1.0" xmlns="http://www.w3.org/2000/svg"
 width="1280.000000pt" height="1042.000000pt" viewBox="0 0 1280.000000 1042.000000"
 preserveAspectRatio="xMidYMid meet">
<metadata>
Created by potrace 1.15, written by Peter Selinger 2001-2017
</metadata>
<g transform="translate(0.000000,1042.000000) scale(0.100000,-0.100000)"
fill="#000000" stroke="none">
<path d="M8831 10363 c-15 -32 -63 -152 -106 -268 -350 -945 -808 -1465 -1394
-1585 -220 -45 -576 -10 -802 78 -41 16 -96 37 -122 47 -47 17 -441 212 -599
295 -64 34 -80 39 -97 30 -12 -6 -21 -21 -21 -33 0 -48 245 -445 407 -659 243
-322 472 -535 713 -666 47 -25 121 -74 165 -109 44 -35 97 -69 118 -75 36 -11
41 -18 137 -207 55 -107 98 -197 96 -199 -13 -12 -441 -99 -601 -122 -44 -7
-118 -20 -164 -31 -46 -11 -156 -28 -245 -39 -88 -11 -219 -29 -291 -40 -127
-19 -215 -28 -480 -50 -71 -6 -206 -20 -300 -30 -247 -27 -269 -29 -505 -45
-224 -14 -250 -18 -250 -41 0 -27 41 -34 256 -44 438 -20 934 -9 1289 30 50 5
158 16 240 25 237 24 385 48 755 121 151 30 300 57 331 61 54 5 57 4 78 -25
12 -17 56 -95 97 -174 198 -373 374 -575 829 -953 307 -256 351 -299 404 -406
l42 -84 -3 -115 c-3 -99 -7 -123 -29 -170 -108 -228 -362 -378 -649 -383 l-95
-2 -129 63 c-175 86 -220 95 -466 89 -222 -5 -230 -7 -407 -93 -142 -70 -181
-73 -283 -26 -36 16 -81 33 -100 37 -19 4 -62 16 -95 27 -80 25 -225 62 -360
90 -104 22 -132 23 -490 23 -324 0 -397 -3 -498 -19 -106 -17 -131 -18 -238
-6 -166 17 -373 -1 -560 -49 -265 -68 -388 -175 -440 -382 -20 -76 -21 -91
-10 -163 15 -96 68 -249 111 -320 47 -76 121 -158 444 -491 606 -625 770 -831
852 -1070 24 -68 28 -97 28 -195 1 -199 -48 -298 -248 -490 -410 -395 -458
-451 -542 -637 -47 -104 -49 -112 -49 -198 0 -81 3 -97 33 -159 38 -81 145
-192 235 -245 72 -42 223 -95 348 -121 209 -43 299 -52 524 -53 245 0 393 13
535 48 142 35 182 38 330 20 356 -41 452 -47 730 -42 237 4 288 7 370 26 163
38 272 53 600 81 376 33 653 89 980 197 226 75 510 234 768 430 94 71 131 79
185 41 18 -12 131 -119 252 -238 235 -230 338 -314 505 -410 228 -130 447
-201 750 -242 308 -41 930 18 1068 102 65 40 53 52 -176 188 -138 83 -241 160
-338 257 -93 93 -132 148 -239 340 -100 179 -110 196 -183 286 -101 125 -231
231 -436 352 -66 39 -133 83 -150 98 l-31 27 17 36 c10 19 42 69 73 110 242
328 431 752 509 1146 101 508 60 1093 -111 1580 -113 321 -300 660 -514 932
-173 220 -498 513 -747 675 -242 159 -408 238 -900 433 -274 109 -553 238
-661 307 -131 83 -273 221 -287 280 -9 34 11 51 136 119 58 31 115 66 128 77
20 19 21 22 6 30 -27 15 -133 1 -236 -32 -52 -17 -98 -31 -101 -31 -14 0 -72
264 -93 424 l-14 109 40 34 c82 71 238 299 334 490 146 290 211 514 241 829
17 181 20 516 5 631 -56 423 -98 573 -161 573 -13 0 -28 -19 -48 -57z"/>
<path d="M3835 9217 c-50 -53 -72 -117 -115 -342 -17 -88 -40 -198 -51 -245
-47 -205 -45 -201 -137 -238 -30 -12 -76 -38 -102 -57 -72 -53 -200 -193 -242
-265 -35 -60 -90 -217 -139 -398 -26 -97 -33 -102 -135 -102 -106 0 -346 40
-396 66 -40 21 -35 40 19 77 67 46 119 94 111 103 -10 10 -136 -11 -227 -38
-131 -38 -199 -130 -138 -185 35 -33 78 -51 194 -82 228 -61 532 -86 1043 -85
546 1 711 18 1072 108 225 57 320 94 370 148 48 52 29 111 -50 152 -39 20
-103 29 -121 17 -12 -8 -12 -16 2 -53 25 -65 22 -73 -30 -98 -123 -58 -422
-103 -451 -68 -7 9 -19 67 -28 129 -23 173 -42 249 -78 325 -34 71 -123 188
-195 259 -38 37 -41 43 -41 95 0 57 20 218 40 320 44 226 52 361 26 425 -18
43 -69 75 -120 75 -33 0 -46 -7 -81 -43z"/>
<path d="M1572 7683 c-53 -19 -112 -73 -112 -103 0 -13 16 -39 38 -60 44 -44
165 -87 334 -119 118 -22 254 -49 316 -62 23 -4 118 -18 210 -29 92 -11 208
-27 257 -35 133 -22 261 -35 345 -35 41 0 86 -6 99 -13 13 -6 55 -64 93 -127
38 -63 90 -141 115 -174 77 -98 82 -136 39 -296 -23 -88 -39 -217 -32 -262 4
-23 22 -71 41 -107 19 -36 45 -93 57 -125 13 -33 28 -61 34 -63 6 -2 22 18 34
44 12 26 49 86 81 133 51 73 62 97 79 175 11 50 30 135 44 190 13 55 27 117
30 138 11 59 34 68 204 78 81 4 262 8 402 9 226 0 698 20 820 35 25 2 95 10
155 16 145 14 625 75 745 94 320 51 624 131 760 200 181 92 180 206 -3 295
-105 50 -249 89 -357 96 l-85 5 42 -39 c23 -22 75 -56 115 -77 75 -40 158
-108 158 -131 0 -77 -348 -183 -750 -229 -74 -9 -175 -22 -225 -30 -118 -18
-261 -32 -530 -50 -121 -9 -247 -20 -280 -25 -144 -24 -802 -36 -822 -16 -7 7
36 64 127 168 l74 85 151 12 c82 7 209 21 280 31 72 11 175 24 230 30 225 24
284 32 370 50 50 10 134 26 189 34 151 25 236 70 236 126 0 63 -87 120 -183
120 -66 0 -69 -5 -35 -76 22 -45 22 -46 4 -60 -11 -7 -36 -16 -55 -20 -20 -3
-99 -21 -176 -39 -77 -19 -205 -41 -285 -50 -80 -9 -203 -25 -275 -36 -242
-37 -1552 -33 -1815 5 -58 9 -134 20 -170 25 -36 6 -134 17 -219 26 -85 9
-182 22 -215 30 -34 8 -122 23 -196 35 -207 31 -390 82 -390 108 0 4 14 25 32
46 30 37 31 39 13 52 -24 18 -88 17 -143 -3z"/>
<path d="M774 7584 c-56 -20 -120 -77 -134 -119 -17 -50 -4 -92 44 -139 45
-46 210 -135 296 -161 30 -9 105 -31 165 -49 143 -44 354 -92 480 -111 55 -8
143 -23 195 -34 52 -11 158 -27 235 -36 177 -21 238 -32 261 -49 18 -14 18
-16 1 -63 -19 -53 -23 -190 -7 -258 11 -50 87 -123 171 -166 33 -16 59 -33 59
-37 0 -4 -7 -47 -15 -96 -19 -115 -9 -161 46 -210 87 -80 178 -99 269 -59 102
45 150 116 150 222 0 77 -12 99 -93 179 l-64 63 29 86 c34 102 34 109 7 221
-11 48 -23 101 -27 117 -10 41 -54 61 -177 80 -55 9 -138 23 -185 31 -47 8
-157 23 -245 34 -88 11 -194 26 -235 35 -41 9 -153 29 -249 45 -95 17 -196 37
-224 45 -28 8 -89 22 -136 30 -103 18 -363 104 -444 147 -59 32 -117 88 -117
113 0 8 9 39 21 70 11 31 18 62 15 70 -7 18 -38 18 -92 -1z"/>
<path d="M172 7445 c-84 -36 -172 -138 -172 -198 0 -145 247 -272 670 -346
122 -21 532 -73 715 -90 298 -28 800 -21 832 12 8 8 12 20 9 26 -10 16 -51 20
-306 31 -129 6 -302 19 -385 30 -82 11 -235 29 -340 40 -226 24 -395 51 -565
91 -244 57 -349 102 -400 171 -30 41 -29 75 5 157 14 35 24 70 21 77 -7 18
-42 17 -84 -1z"/>
<path d="M2085 6524 c-59 -30 -58 -50 1 -108 39 -39 44 -48 34 -65 -14 -28
-48 -35 -99 -21 -51 13 -61 8 -61 -33 0 -112 149 -171 262 -104 133 77 129
259 -7 318 -64 27 -97 31 -130 13z"/>
<path d="M4340 6520 c-46 -24 -81 -62 -125 -135 -31 -50 -35 -66 -30 -98 11
-76 77 -151 150 -172 40 -13 60 -13 105 -4 102 21 147 60 176 154 17 52 17 58
1 109 -28 89 -132 167 -218 166 -13 -1 -40 -9 -59 -20z"/>
<path d="M3390 6010 c-6 -11 -17 -90 -25 -176 -13 -138 -18 -162 -43 -208 -15
-28 -34 -71 -41 -96 -35 -121 -220 -438 -300 -514 l-31 -30 0 115 c0 147 -14
191 -81 254 -73 68 -137 95 -228 95 -123 0 -161 -28 -261 -192 -39 -63 -92
-97 -171 -108 -74 -11 -152 -59 -195 -122 -23 -33 -29 -54 -32 -109 -6 -99 4
-135 48 -183 131 -142 313 -116 445 64 l35 48 103 -5 102 -5 83 41 c46 23 86
41 89 41 18 0 -17 -92 -100 -267 -108 -226 -149 -337 -210 -567 l-42 -161 0
-345 c0 -227 5 -365 12 -405 7 -35 43 -121 84 -205 70 -143 73 -147 183 -255
77 -75 141 -127 202 -164 103 -63 137 -92 166 -141 72 -121 112 -156 230 -193
l73 -24 5 -179 c5 -175 6 -180 35 -233 58 -106 252 -255 365 -280 194 -44 283
-41 395 12 82 39 145 89 145 115 0 8 20 59 45 113 25 54 52 133 61 176 34 171
44 205 74 246 75 105 158 102 360 -14 51 -29 113 -21 154 20 27 27 31 38 31
84 0 76 -36 127 -118 168 -34 17 -75 41 -91 52 -43 30 -128 47 -244 47 -103 0
-105 0 -185 -42 -94 -49 -150 -101 -190 -175 -40 -75 -77 -229 -77 -322 0 -83
-6 -97 -69 -164 -42 -45 -87 -74 -132 -87 -25 -8 -42 -5 -78 11 -36 16 -65 21
-130 20 -67 -1 -90 3 -115 18 -68 42 -99 144 -99 326 l-1 120 44 94 c23 52 45
112 47 135 11 90 -42 185 -131 240 -63 39 -153 44 -187 10 -29 -29 -19 -53 37
-93 84 -61 91 -100 28 -165 -42 -43 -71 -46 -114 -10 -38 32 -60 74 -60 112 0
45 -27 62 -100 62 -53 0 -73 5 -119 31 -186 105 -325 269 -406 477 -49 128
-58 213 -52 486 4 195 8 243 26 306 12 41 33 120 47 175 71 281 212 584 438
945 125 200 202 358 227 468 11 48 29 116 40 152 20 69 40 270 32 333 -6 45
-18 55 -33 27z"/>
<path d="M3737 5680 c-64 -20 -184 -136 -226 -217 -20 -40 -13 -114 18 -178
71 -151 250 -231 390 -176 83 34 134 73 166 133 28 49 30 61 30 153 -1 112
-10 140 -72 200 -56 54 -132 87 -211 91 -37 2 -80 -1 -95 -6z"/>
<path d="M4740 5373 c-25 -10 -70 -44 -70 -54 0 -5 22 -20 50 -34 57 -29 70
-48 70 -104 0 -61 -45 -94 -100 -71 -35 15 -56 45 -65 94 -11 58 -25 57 -69
-8 -37 -56 -36 -118 5 -179 61 -92 126 -124 232 -113 80 8 122 30 168 88 70
89 76 174 17 262 -56 86 -172 144 -238 119z"/>
<path d="M3715 4811 c-102 -59 -145 -121 -145 -211 0 -63 17 -106 61 -148 45
-45 80 -62 138 -69 132 -15 271 101 271 227 0 114 -124 230 -244 230 -17 0
-53 -13 -81 -29z"/>
<path d="M3295 4436 c-71 -34 -164 -113 -200 -170 -56 -91 -32 -211 62 -302
62 -60 104 -78 202 -82 111 -5 149 7 215 71 74 73 99 125 98 208 0 126 -77
233 -198 278 -71 27 -118 26 -179 -3z"/>
</g>
</svg>
